AmstelvarItalic-opsz14-wght100-wdth125.ufo
<glyph name="numbersign" format="2">
  <advance width="1340"/>
  <unicode hex="0023"/>
  <outline>
    <contour>
      <point x="10.0" y="483.0" type="line"/>
      <point x="40.0" y="563.0" type="line"/>
      <point x="1141.0" y="563.0" type="line"/>
      <point x="1111.0" y="483.0" type="line"/>
    </contour>
    <contour>
      <point x="105.0" y="918.0" type="line"/>
      <point x="135.0" y="998.0" type="line"/>
      <point x="1236.0" y="998.0" type="line"/>
      <point x="1206.0" y="918.0" type="line"/>
    </contour>
    <contour>
      <point x="90.0" y="22.0" type="line"/>
      <point x="622.0" y="1466.0" type="line"/>
      <point x="685.0" y="1449.0" type="line"/>
      <point x="154.0" y="5.0" type="line"/>
    </contour>
    <contour>
      <point x="573.0" y="22.0" type="line"/>
      <point x="1105.0" y="1466.0" type="line"/>
      <point x="1169.0" y="1449.0" type="line"/>
      <point x="637.0" y="5.0" type="line"/>
    </contour>
  </outline>
</glyph>
<glyph name="ampersand" format="2">
  <advance width="1746"/>
  <unicode hex="0026"/>
  <outline>
    <contour>
      <point x="1171.0" y="0.0" type="line"/>
      <point x="1097.0" y="178.0" type="line"/>
      <point x="1001.0" y="97.0"/>
      <point x="694.0" y="-23.0"/>
      <point x="504.0" y="-23.0" type="qcurve" smooth="yes"/>
      <point x="243.0" y="-23.0"/>
      <point x="-5.0" y="197.0"/>
      <point x="28.0" y="390.0" type="qcurve" smooth="yes"/>
      <point x="58.0" y="560.0"/>
      <point x="381.0" y="762.0"/>
      <point x="657.0" y="786.0" type="qcurve"/>
      <point x="513.0" y="831.0"/>
      <point x="352.0" y="1060.0"/>
      <point x="395.0" y="1211.0" type="qcurve" smooth="yes"/>
      <point x="439.0" y="1371.0"/>
      <point x="739.0" y="1528.0"/>
      <point x="934.0" y="1520.0" type="qcurve" smooth="yes"/>
      <point x="1059.0" y="1515.0"/>
      <point x="1300.0" y="1460.0"/>
      <point x="1326.0" y="1460.0" type="qcurve" smooth="yes"/>
      <point x="1346.0" y="1460.0"/>
      <point x="1365.0" y="1475.0"/>
      <point x="1366.0" y="1487.0" type="qcurve"/>
      <point x="1418.0" y="1487.0" type="line"/>
      <point x="1317.0" y="1102.0" type="line"/>
      <point x="1270.0" y="1102.0" type="line"/>
      <point x="1279.0" y="1381.0" type="line"/>
      <point x="1240.0" y="1412.0"/>
      <point x="1042.0" y="1451.0"/>
      <point x="927.0" y="1451.0" type="qcurve" smooth="yes"/>
      <point x="764.0" y="1451.0"/>
      <point x="493.0" y="1319.0"/>
      <point x="472.0" y="1197.0" type="qcurve" smooth="yes"/>
      <point x="438.0" y="1005.0"/>
      <point x="703.0" y="793.0"/>
      <point x="1089.0" y="785.0" type="qcurve" smooth="yes"/>
      <point x="1383.0" y="779.0"/>
      <point x="1648.0" y="807.0"/>
      <point x="1735.0" y="872.0" type="qcurve"/>
      <point x="1752.0" y="851.0" type="line"/>
      <point x="1729.0" y="797.0"/>
      <point x="1567.0" y="707.0"/>
      <point x="1454.0" y="707.0" type="qcurve" smooth="yes"/>
      <point x="1349.0" y="707.0"/>
      <point x="942.0" y="736.0"/>
      <point x="827.0" y="736.0" type="qcurve" smooth="yes"/>
      <point x="536.0" y="736.0"/>
      <point x="140.0" y="529.0"/>
      <point x="114.0" y="377.0" type="qcurve" smooth="yes"/>
      <point x="87.0" y="220.0"/>
      <point x="303.0" y="38.0"/>
      <point x="506.0" y="38.0" type="qcurve" smooth="yes"/>
      <point x="717.0" y="38.0"/>
      <point x="1115.0" y="226.0"/>
      <point x="1190.0" y="406.0" type="qcurve" smooth="yes"/>
      <point x="1322.0" y="743.0" type="line"/>
      <point x="1412.0" y="719.0" type="line"/>
      <point x="1298.0" y="510.0"/>
      <point x="1207.0" y="151.0"/>
      <point x="1246.0" y="28.0" type="qcurve"/>
    </contour>
  </outline>
</glyph>
<glyph name="parenleft" format="2">
  <advance width="718"/>
  <unicode hex="0028"/>
  <outline>
    <contour>
      <point x="122.0" y="692.0" type="qcurve" smooth="yes"/>
      <point x="157.0" y="938.0"/>
      <point x="520.0" y="1408.0"/>
      <point x="751.0" y="1545.0" type="qcurve"/>
      <point x="792.0" y="1518.0" type="line"/>
      <point x="565.0" y="1377.0"/>
      <point x="243.0" y="956.0"/>
      <point x="206.0" y="692.0" type="qcurve" smooth="yes"/>
      <point x="166.0" y="406.0"/>
      <point x="389.0" y="-5.0"/>
      <point x="560.0" y="-135.0" type="qcurve"/>
      <point x="511.0" y="-161.0" type="line"/>
      <point x="317.0" y="-19.0"/>
      <point x="86.0" y="437.0"/>
    </contour>
  </outline>
</glyph>
<glyph name="asterisk" format="2">
  <advance width="880"/>
  <unicode hex="002A"/>
  <outline>
    <contour>
      <point x="432.0" y="808.0" type="qcurve" smooth="yes"/>
      <point x="388.0" y="822.0"/>
      <point x="427.0" y="946.0"/>
      <point x="447.0" y="989.0" type="qcurve" smooth="yes"/>
      <point x="519.0" y="1155.0" type="line"/>
      <point x="517.0" y="1156.0" type="line"/>
      <point x="345.0" y="1090.0" type="line" smooth="yes"/>
      <point x="310.0" y="1076.0"/>
      <point x="176.0" y="1031.0"/>
      <point x="165.0" y="1082.0" type="qcurve" smooth="yes"/>
      <point x="152.0" y="1130.0"/>
      <point x="279.0" y="1157.0"/>
      <point x="332.0" y="1162.0" type="qcurve" smooth="yes"/>
      <point x="509.0" y="1180.0" type="line"/>
      <point x="509.0" y="1184.0" type="line"/>
      <point x="348.0" y="1313.0" type="line" smooth="yes"/>
      <point x="310.0" y="1344.0"/>
      <point x="240.0" y="1422.0"/>
      <point x="272.0" y="1453.0" type="qcurve" smooth="yes"/>
      <point x="304.0" y="1484.0"/>
      <point x="378.0" y="1406.0"/>
      <point x="408.0" y="1366.0" type="qcurve" smooth="yes"/>
      <point x="529.0" y="1204.0" type="line"/>
      <point x="533.0" y="1204.0" type="line"/>
      <point x="566.0" y="1407.0" type="line" smooth="yes"/>
      <point x="575.0" y="1460.0"/>
      <point x="603.0" y="1549.0"/>
      <point x="643.0" y="1543.0" type="qcurve" smooth="yes"/>
      <point x="683.0" y="1537.0"/>
      <point x="660.0" y="1442.0"/>
      <point x="639.0" y="1391.0" type="qcurve" smooth="yes"/>
      <point x="557.0" y="1197.0" type="line"/>
      <point x="558.0" y="1194.0" type="line"/>
      <point x="752.0" y="1269.0" type="line" smooth="yes"/>
      <point x="772.0" y="1277.0"/>
      <point x="893.0" y="1320.0"/>
      <point x="907.0" y="1270.0" type="qcurve" smooth="yes"/>
      <point x="919.0" y="1222.0"/>
      <point x="779.0" y="1198.0"/>
      <point x="766.0" y="1197.0" type="qcurve" smooth="yes"/>
      <point x="565.0" y="1170.0" type="line"/>
      <point x="565.0" y="1166.0" type="line"/>
      <point x="693.0" y="1063.0" type="line" smooth="yes"/>
      <point x="739.0" y="1028.0"/>
      <point x="841.0" y="932.0"/>
      <point x="804.0" y="897.0" type="qcurve" smooth="yes"/>
      <point x="767.0" y="861.0"/>
      <point x="674.0" y="969.0"/>
      <point x="643.0" y="1014.0" type="qcurve" smooth="yes"/>
      <point x="545.0" y="1148.0" type="line"/>
      <point x="543.0" y="1148.0" type="line"/>
      <point x="521.0" y="973.0" type="line" smooth="yes"/>
      <point x="516.0" y="921.0"/>
      <point x="482.0" y="794.0"/>
    </contour>
  </outline>
</glyph>
<glyph name="six" format="2">
  <advance width="1296"/>
  <unicode hex="0036"/>
  <outline>
    <contour>
      <point x="38.0" y="447.0" type="qcurve" smooth="yes"/>
      <point x="44.0" y="789.0"/>
      <point x="672.0" y="1460.0"/>
      <point x="1141.0" y="1580.0" type="qcurve"/>
      <point x="1171.0" y="1527.0" type="line"/>
      <point x="754.0" y="1403.0"/>
      <point x="136.0" y="815.0"/>
      <point x="119.0" y="432.0" type="qcurve" smooth="yes"/>
      <point x="111.0" y="262.0"/>
      <point x="341.0" y="47.0"/>
      <point x="499.0" y="47.0" type="qcurve" smooth="yes"/>
      <point x="710.0" y="47.0"/>
      <point x="1025.0" y="313.0"/>
      <point x="1030.0" y="528.0" type="qcurve" smooth="yes"/>
      <point x="1033.0" y="668.0"/>
      <point x="839.0" y="839.0"/>
      <point x="667.0" y="832.0" type="qcurve" smooth="yes"/>
      <point x="588.0" y="829.0"/>
      <point x="445.0" y="773.0"/>
      <point x="393.0" y="743.0" type="qcurve"/>
      <point x="377.0" y="780.0" type="line"/>
      <point x="426.0" y="821.0"/>
      <point x="599.0" y="893.0"/>
      <point x="712.0" y="900.0" type="qcurve" smooth="yes"/>
      <point x="913.0" y="914.0"/>
      <point x="1100.0" y="705.0"/>
      <point x="1097.0" y="536.0" type="qcurve" smooth="yes"/>
      <point x="1091.0" y="310.0"/>
      <point x="763.0" y="-21.0"/>
      <point x="496.0" y="-21.0" type="qcurve" smooth="yes"/>
      <point x="318.0" y="-21.0"/>
      <point x="34.0" y="190.0"/>
    </contour>
  </outline>
</glyph>
<glyph name="G" format="2">
  <advance width="1821"/>
  <unicode hex="0047"/>
  <outline>
    <contour>
      <point x="166.0" y="839.0" type="qcurve" smooth="yes"/>
      <point x="250.0" y="1146.0"/>
      <point x="790.0" y="1544.0"/>
      <point x="1200.0" y="1523.0" type="qcurve" smooth="yes"/>
      <point x="1311.0" y="1517.0"/>
      <point x="1514.0" y="1469.0"/>
      <point x="1597.0" y="1435.0" type="qcurve" smooth="yes"/>
      <point x="1617.0" y="1427.0" type="line"/>
      <point x="1630.0" y="1420.0" type="line"/>
      <point x="1568.0" y="1088.0" type="line"/>
      <point x="1493.0" y="1088.0" type="line"/>
      <point x="1500.0" y="1313.0" type="line"/>
      <point x="1458.0" y="1392.0"/>
      <point x="1230.0" y="1456.0"/>
      <point x="1133.0" y="1459.0" type="qcurve" smooth="yes"/>
      <point x="834.0" y="1468.0"/>
      <point x="336.0" y="1124.0"/>
      <point x="266.0" y="842.0" type="qcurve" smooth="yes"/>
      <point x="183.0" y="502.0"/>
      <point x="441.0" y="85.0"/>
      <point x="747.0" y="57.0" type="qcurve" smooth="yes"/>
      <point x="921.0" y="41.0"/>
      <point x="1206.0" y="97.0"/>
      <point x="1336.0" y="166.0" type="qcurve"/>
      <point x="1443.0" y="616.0" type="line"/>
      <point x="1206.0" y="641.0" type="line"/>
      <point x="1213.0" y="690.0" type="line"/>
      <point x="1728.0" y="690.0" type="line"/>
      <point x="1718.0" y="640.0" type="line"/>
      <point x="1542.0" y="615.0" type="line"/>
      <point x="1428.0" y="131.0" type="line"/>
      <point x="1365.0" y="95.0" type="line"/>
      <point x="1243.0" y="36.0"/>
      <point x="937.0" y="-34.0"/>
      <point x="708.0" y="-17.0" type="qcurve" smooth="yes"/>
      <point x="367.0" y="7.0"/>
      <point x="71.0" y="487.0"/>
    </contour>
  </outline>
</glyph>
<glyph name="I" format="2">
  <advance width="838"/>
  <unicode hex="0049"/>
  <outline>
    <contour>
      <point x="2.0" y="0.0" type="line"/>
      <point x="10.0" y="45.0" type="line"/>
      <point x="219.0" y="71.0" type="line"/>
      <point x="383.0" y="858.0" type="line"/>
      <point x="480.0" y="1426.0" type="line"/>
      <point x="261.0" y="1452.0" type="line"/>
      <point x="262.0" y="1500.0" type="line"/>
      <point x="794.0" y="1500.0" type="line"/>
      <point x="786.0" y="1452.0" type="line"/>
      <point x="581.0" y="1426.0" type="line"/>
      <point x="465.0" y="826.0" type="line"/>
      <point x="320.0" y="70.0" type="line"/>
      <point x="534.0" y="45.0" type="line"/>
      <point x="541.0" y="0.0" type="line"/>
    </contour>
  </outline>
</glyph>
<glyph name="L" format="2">
  <advance width="1374"/>
  <unicode hex="004C"/>
  <outline>
    <contour>
      <point x="-17.0" y="0.0" type="line"/>
      <point x="2.0" y="48.0" type="line"/>
      <point x="210.0" y="76.0" type="line"/>
      <point x="364.0" y="806.0" type="line"/>
      <point x="472.0" y="1436.0" type="line"/>
      <point x="251.0" y="1452.0" type="line"/>
      <point x="253.0" y="1500.0" type="line"/>
      <point x="782.0" y="1500.0" type="line"/>
      <point x="764.0" y="1452.0" type="line"/>
      <point x="572.0" y="1436.0" type="line"/>
      <point x="444.0" y="754.0" type="line"/>
      <point x="317.0" y="95.0" type="line"/>
      <point x="341.0" y="68.0" type="line"/>
      <point x="1044.0" y="68.0" type="line"/>
      <point x="1191.0" y="369.0" type="line"/>
      <point x="1262.0" y="369.0" type="line"/>
      <point x="1143.0" y="0.0" type="line"/>
    </contour>
  </outline>
</glyph>
<glyph name="S" format="2">
  <advance width="1366"/>
  <unicode hex="0053"/>
  <outline>
    <contour>
      <point x="-74.0" y="-9.0" type="line"/>
      <point x="-1.0" y="418.0" type="line"/>
      <point x="50.0" y="417.0" type="line"/>
      <point x="54.0" y="307.0" type="line" smooth="yes"/>
      <point x="58.0" y="196.0"/>
      <point x="355.0" y="42.0"/>
      <point x="585.0" y="42.0" type="qcurve" smooth="yes"/>
      <point x="820.0" y="42.0"/>
      <point x="1056.0" y="223.0"/>
      <point x="1060.0" y="376.0" type="qcurve" smooth="yes"/>
      <point x="1063.0" y="502.0"/>
      <point x="869.0" y="678.0"/>
      <point x="627.0" y="774.0" type="qcurve" smooth="yes"/>
      <point x="448.0" y="837.0"/>
      <point x="210.0" y="1027.0"/>
      <point x="215.0" y="1190.0" type="qcurve" smooth="yes"/>
      <point x="220.0" y="1353.0"/>
      <point x="479.0" y="1542.0"/>
      <point x="720.0" y="1542.0" type="qcurve" smooth="yes"/>
      <point x="889.0" y="1542.0"/>
      <point x="1110.0" y="1464.0"/>
      <point x="1169.0" y="1421.0" type="qcurve"/>
      <point x="1247.0" y="1541.0" type="line"/>
      <point x="1284.0" y="1532.0" type="line"/>
      <point x="1224.0" y="1113.0" type="line"/>
      <point x="1174.0" y="1113.0" type="line"/>
      <point x="1157.0" y="1286.0" type="line"/>
      <point x="1156.0" y="1350.0"/>
      <point x="897.0" y="1478.0"/>
      <point x="729.0" y="1478.0" type="qcurve" smooth="yes"/>
      <point x="520.0" y="1478.0"/>
      <point x="312.0" y="1334.0"/>
      <point x="307.0" y="1212.0" type="qcurve" smooth="yes"/>
      <point x="302.0" y="1093.0"/>
      <point x="459.0" y="941.0"/>
      <point x="682.0" y="846.0" type="qcurve" smooth="yes"/>
      <point x="940.0" y="736.0"/>
      <point x="1167.0" y="536.0"/>
      <point x="1159.0" y="384.0" type="qcurve" smooth="yes"/>
      <point x="1149.0" y="187.0"/>
      <point x="851.0" y="-26.0"/>
      <point x="612.0" y="-26.0" type="qcurve" smooth="yes"/>
      <point x="430.0" y="-26.0"/>
      <point x="136.0" y="49.0"/>
      <point x="47.0" y="126.0" type="qcurve"/>
      <point x="-37.0" y="-19.0" type="line"/>
    </contour>
  </outline>
</glyph>
<glyph name="T" format="2">
  <advance width="1633"/>
  <unicode hex="0054"/>
  <outline>
    <contour>
      <point x="159.0" y="1154.0" type="line"/>
      <point x="233.0" y="1500.0" type="line"/>
      <point x="1662.0" y="1500.0" type="line"/>
      <point x="1588.0" y="1154.0" type="line"/>
      <point x="1508.0" y="1154.0" type="line"/>
      <point x="1526.0" y="1432.0" type="line"/>
      <point x="995.0" y="1432.0" type="line"/>
      <point x="981.0" y="1412.0" type="line"/>
      <point x="856.0" y="754.0" type="line"/>
      <point x="727.0" y="73.0" type="line"/>
      <point x="950.0" y="47.0" type="line"/>
      <point x="946.0" y="0.0" type="line"/>
      <point x="406.0" y="0.0" type="line"/>
      <point x="425.0" y="47.0" type="line"/>
      <point x="629.0" y="73.0" type="line"/>
      <point x="764.0" y="754.0" type="line"/>
      <point x="883.0" y="1412.0" type="line"/>
      <point x="879.0" y="1432.0" type="line"/>
      <point x="341.0" y="1432.0" type="line"/>
      <point x="238.0" y="1154.0" type="line"/>
    </contour>
  </outline>
</glyph>
<glyph name="underscore" format="2">
  <advance width="2043"/>
  <unicode hex="005F"/>
  <outline>
    <contour>
      <point x="-203.0" y="-415.0" type="line"/>
      <point x="-190.0" y="-342.0" type="line"/>
      <point x="857.0" y="-338.0" type="line"/>
      <point x="1893.0" y="-342.0" type="line"/>
      <point x="1880.0" y="-415.0" type="line"/>
      <point x="844.0" y="-425.0" type="line"/>
    </contour>
  </outline>
</glyph>
<glyph name="d" format="2">
  <advance width="1626"/>
  <unicode hex="0064"/>
  <outline>
    <contour>
      <point x="55.0" y="231.0" type="qcurve" smooth="yes"/>
      <point x="43.0" y="543.0"/>
      <point x="592.0" y="1009.0"/>
      <point x="1060.0" y="1000.0" type="qcurve" smooth="yes"/>
      <point x="1248.0" y="1000.0" type="line"/>
      <point x="1337.0" y="1470.0" type="line"/>
      <point x="1133.0" y="1512.0" type="line"/>
      <point x="1139.0" y="1557.0" type="line"/>
      <point x="1402.0" y="1608.0" type="line"/>
      <point x="1433.0" y="1571.0" type="line"/>
      <point x="1226.0" y="469.0" type="line"/>
      <point x="1151.0" y="89.0" type="line"/>
      <point x="1438.0" y="89.0" type="line"/>
      <point x="1437.0" y="44.0" type="line"/>
      <point x="1133.0" y="-16.0" type="line"/>
      <point x="1071.0" y="57.0" type="line"/>
      <point x="1089.0" y="192.0" type="line"/>
      <point x="988.0" y="121.0"/>
      <point x="645.0" y="-10.0"/>
      <point x="422.0" y="-10.0" type="qcurve" smooth="yes"/>
      <point x="246.0" y="-10.0"/>
      <point x="59.0" y="114.0"/>
    </contour>
    <contour>
      <point x="155.0" y="250.0" type="qcurve" smooth="yes"/>
      <point x="157.0" y="124.0"/>
      <point x="314.0" y="45.0"/>
      <point x="438.0" y="45.0" type="qcurve" smooth="yes"/>
      <point x="656.0" y="45.0"/>
      <point x="1091.0" y="226.0"/>
      <point x="1125.0" y="403.0" type="qcurve" smooth="yes"/>
      <point x="1221.0" y="858.0" type="line"/>
      <point x="1223.0" y="882.0"/>
      <point x="1089.0" y="932.0"/>
      <point x="917.0" y="932.0" type="qcurve" smooth="yes"/>
      <point x="588.0" y="932.0"/>
      <point x="151.0" y="500.0"/>
    </contour>
  </outline>
</glyph>
<glyph name="h" format="2">
  <advance width="1644"/>
  <unicode hex="0068"/>
  <outline>
    <contour>
      <point x="183.0" y="-18.0" type="line"/>
      <point x="134.0" y="81.0" type="line"/>
      <point x="239.0" y="527.0" type="line"/>
      <point x="414.0" y="1474.0" type="line"/>
      <point x="181.0" y="1514.0" type="line"/>
      <point x="187.0" y="1554.0" type="line"/>
      <point x="478.0" y="1608.0" type="line"/>
      <point x="511.0" y="1571.0" type="line"/>
      <point x="338.0" y="588.0" type="line"/>
      <point x="223.0" y="111.0" type="line"/>
      <point x="303.0" y="0.0" type="line"/>
    </contour>
    <contour>
      <point x="1162.0" y="-27.0" type="line"/>
      <point x="1081.0" y="72.0" type="line"/>
      <point x="1231.0" y="729.0" type="line" smooth="yes"/>
      <point x="1254.0" y="827.0"/>
      <point x="1159.0" y="919.0"/>
      <point x="1082.0" y="919.0" type="qcurve" smooth="yes"/>
      <point x="922.0" y="919.0"/>
      <point x="466.0" y="743.0"/>
      <point x="345.0" y="637.0" type="qcurve"/>
      <point x="329.0" y="683.0" type="line"/>
      <point x="490.0" y="811.0"/>
      <point x="951.0" y="1011.0"/>
      <point x="1133.0" y="1011.0" type="qcurve" smooth="yes"/>
      <point x="1242.0" y="1011.0"/>
      <point x="1343.0" y="857.0"/>
      <point x="1304.0" y="664.0" type="qcurve" smooth="yes"/>
      <point x="1180.0" y="79.0" type="line"/>
      <point x="1448.0" y="100.0" type="line"/>
      <point x="1448.0" y="50.0" type="line"/>
    </contour>
  </outline>
</glyph>
<glyph name="i" format="2">
  <advance width="587"/>
  <unicode hex="0069"/>
  <outline>
    <contour>
      <point x="151.0" y="-21.0" type="line"/>
      <point x="110.0" y="68.0" type="line"/>
      <point x="204.0" y="527.0" type="line"/>
      <point x="271.0" y="874.0" type="line"/>
      <point x="74.0" y="872.0" type="line"/>
      <point x="76.0" y="915.0" type="line"/>
      <point x="323.0" y="1004.0" type="line"/>
      <point x="371.0" y="1004.0" type="line"/>
      <point x="376.0" y="948.0" type="line"/>
      <point x="347.0" y="849.0" type="line"/>
      <point x="194.0" y="95.0" type="line"/>
      <point x="419.0" y="119.0" type="line"/>
      <point x="419.0" y="76.0" type="line"/>
    </contour>
    <contour>
      <point x="219.0" y="1338.0" type="qcurve" smooth="yes"/>
      <point x="225.0" y="1390.0"/>
      <point x="277.0" y="1444.0"/>
      <point x="323.0" y="1444.0" type="qcurve" smooth="yes"/>
      <point x="364.0" y="1444.0"/>
      <point x="410.0" y="1386.0"/>
      <point x="405.0" y="1338.0" type="qcurve" smooth="yes"/>
      <point x="399.0" y="1288.0"/>
      <point x="347.0" y="1234.0"/>
      <point x="301.0" y="1234.0" type="qcurve" smooth="yes"/>
      <point x="260.0" y="1234.0"/>
      <point x="214.0" y="1292.0"/>
    </contour>
  </outline>
</glyph>
<glyph name="x" format="2">
  <advance width="1363"/>
  <unicode hex="0078"/>
  <outline>
    <contour>
      <point x="200.0" y="876.0" type="line"/>
      <point x="204.0" y="915.0" type="line"/>
      <point x="462.0" y="1002.0" type="line"/>
      <point x="538.0" y="983.0" type="line"/>
      <point x="705.0" y="561.0" type="line"/>
      <point x="909.0" y="86.0" type="line"/>
      <point x="1136.0" y="86.0" type="line"/>
      <point x="1136.0" y="46.0" type="line"/>
      <point x="915.0" y="-11.0" type="line"/>
      <point x="842.0" y="7.0" type="line"/>
      <point x="661.0" y="458.0" type="line"/>
      <point x="478.0" y="889.0" type="line"/>
    </contour>
    <contour>
      <point x="-134.0" y="44.0" type="line"/>
      <point x="-116.0" y="87.0" type="line"/>
      <point x="83.0" y="85.0" type="line" smooth="yes"/>
      <point x="183.0" y="84.0"/>
      <point x="504.0" y="369.0"/>
      <point x="672.0" y="538.0" type="qcurve" smooth="yes"/>
      <point x="840.0" y="710.0"/>
      <point x="1131.0" y="1007.0"/>
      <point x="1251.0" y="1007.0" type="qcurve" smooth="yes"/>
      <point x="1319.0" y="1007.0"/>
      <point x="1361.0" y="945.0"/>
      <point x="1359.0" y="905.0" type="qcurve" smooth="yes"/>
      <point x="1356.0" y="865.0"/>
      <point x="1282.0" y="805.0"/>
      <point x="1246.0" y="803.0" type="qcurve"/>
      <point x="1225.0" y="814.0" type="line"/>
      <point x="1226.0" y="843.0" type="line"/>
      <point x="1227.0" y="859.0"/>
      <point x="1207.0" y="883.0"/>
      <point x="1178.0" y="883.0" type="qcurve" smooth="yes"/>
      <point x="1131.0" y="883.0"/>
      <point x="868.0" y="642.0"/>
      <point x="705.0" y="477.0" type="qcurve" smooth="yes"/>
      <point x="532.0" y="301.0"/>
      <point x="211.0" y="-12.0"/>
      <point x="59.0" y="-12.0" type="qcurve"/>
    </contour>
  </outline>
</glyph>
<glyph name="asciitilde" format="2">
  <advance width="1024"/>
  <unicode hex="007E"/>
  <outline>
    <contour>
      <point x="-20.0" y="621.0" type="line"/>
      <point x="60.0" y="714.0"/>
      <point x="242.0" y="806.0"/>
      <point x="330.0" y="806.0" type="qcurve"/>
      <point x="686.0" y="671.0" type="line"/>
      <point x="765.0" y="670.0"/>
      <point x="894.0" y="736.0"/>
      <point x="937.0" y="790.0" type="qcurve"/>
      <point x="979.0" y="761.0" type="line"/>
      <point x="925.0" y="682.0"/>
      <point x="757.0" y="595.0"/>
      <point x="644.0" y="599.0" type="qcurve"/>
      <point x="290.0" y="733.0" type="line"/>
      <point x="236.0" y="733.0"/>
      <point x="106.0" y="668.0"/>
      <point x="13.0" y="582.0" type="qcurve"/>
    </contour>
  </outline>
</glyph>
<glyph name="copyright" format="2">
  <advance width="2253"/>
  <unicode hex="00A9"/>
  <outline>
    <contour>
      <point x="541.0" y="619.0" type="qcurve" smooth="yes"/>
      <point x="541.0" y="849.0"/>
      <point x="864.0" y="1151.0"/>
      <point x="1102.0" y="1151.0" type="qcurve" smooth="yes"/>
      <point x="1205.0" y="1151.0"/>
      <point x="1341.0" y="1110.0"/>
      <point x="1387.0" y="1073.0" type="qcurve"/>
      <point x="1406.0" y="1144.0" type="line"/>
      <point x="1474.0" y="1134.0" type="line"/>
      <point x="1486.0" y="818.0" type="line"/>
      <point x="1425.0" y="810.0" type="line"/>
      <point x="1391.0" y="925.0" type="line"/>
      <point x="1363.0" y="1015.0"/>
      <point x="1209.0" y="1095.0"/>
      <point x="1103.0" y="1095.0" type="qcurve" smooth="yes"/>
      <point x="901.0" y="1095.0"/>
      <point x="626.0" y="852.0"/>
      <point x="627.0" y="630.0" type="qcurve" smooth="yes"/>
      <point x="627.0" y="405.0"/>
      <point x="893.0" y="180.0"/>
      <point x="1130.0" y="180.0" type="qcurve" smooth="yes"/>
      <point x="1250.0" y="180.0"/>
      <point x="1449.0" y="268.0"/>
      <point x="1511.0" y="345.0" type="qcurve"/>
      <point x="1543.0" y="316.0" type="line"/>
      <point x="1481.0" y="224.0"/>
      <point x="1243.0" y="109.0"/>
      <point x="1091.0" y="109.0" type="qcurve" smooth="yes"/>
      <point x="858.0" y="109.0"/>
      <point x="541.0" y="375.0"/>
    </contour>
    <contour>
      <point x="59.0" y="675.0" type="qcurve" smooth="yes"/>
      <point x="59.0" y="1051.0"/>
      <point x="612.0" y="1570.0"/>
      <point x="1057.0" y="1570.0" type="qcurve" smooth="yes"/>
      <point x="1499.0" y="1570.0"/>
      <point x="2070.0" y="1077.0"/>
      <point x="2070.0" y="696.0" type="qcurve" smooth="yes"/>
      <point x="2070.0" y="278.0"/>
      <point x="1517.0" y="-242.0"/>
      <point x="1080.0" y="-242.0" type="qcurve" smooth="yes"/>
      <point x="630.0" y="-242.0"/>
      <point x="59.0" y="266.0"/>
    </contour>
    <contour>
      <point x="158.0" y="672.0" type="qcurve" smooth="yes"/>
      <point x="158.0" y="292.0"/>
      <point x="675.0" y="-153.0"/>
      <point x="1072.0" y="-153.0" type="qcurve" smooth="yes"/>
      <point x="1458.0" y="-153.0"/>
      <point x="1971.0" y="300.0"/>
      <point x="1971.0" y="690.0" type="qcurve" smooth="yes"/>
      <point x="1971.0" y="1031.0"/>
      <point x="1478.0" y="1481.0"/>
      <point x="1074.0" y="1481.0" type="qcurve" smooth="yes"/>
      <point x="689.0" y="1481.0"/>
      <point x="158.0" y="1021.0"/>
    </contour>
  </outline>
</glyph>
<glyph name="paragraph" format="2">
  <advance width="1245"/>
  <unicode hex="00B6"/>
  <outline>
    <contour>
      <point x="743.0" y="132.0" type="qcurve" smooth="yes"/>
      <point x="872.0" y="817.0" type="line"/>
      <point x="832.0" y="811.0"/>
      <point x="605.0" y="803.0"/>
      <point x="546.0" y="803.0" type="qcurve" smooth="yes"/>
      <point x="353.0" y="803.0"/>
      <point x="151.0" y="1004.0"/>
      <point x="176.0" y="1170.0" type="qcurve" smooth="yes"/>
      <point x="198.0" y="1314.0"/>
      <point x="398.0" y="1500.0"/>
      <point x="590.0" y="1500.0" type="qcurve" smooth="yes"/>
      <point x="1307.0" y="1500.0" type="line"/>
      <point x="1297.0" y="1453.0" type="line"/>
      <point x="1053.0" y="1440.0" type="line"/>
      <point x="933.0" y="754.0" type="line"/>
      <point x="819.0" y="185.0" type="line"/>
      <point x="885.0" y="106.0"/>
      <point x="862.0" y="6.0"/>
      <point x="808.0" y="6.0" type="qcurve" smooth="yes"/>
      <point x="767.0" y="6.0"/>
      <point x="733.0" y="80.0"/>
    </contour>
    <contour>
      <point x="433.0" y="220.0" type="qcurve" smooth="yes"/>
      <point x="557.0" y="872.0" type="line"/>
      <point x="631.0" y="879.0" type="line"/>
      <point x="514.0" y="250.0" type="line" smooth="yes"/>
      <point x="463.0" y="-23.0"/>
      <point x="292.0" y="-283.0"/>
      <point x="141.0" y="-283.0" type="qcurve" smooth="yes"/>
      <point x="44.0" y="-283.0"/>
      <point x="-56.0" y="-189.0"/>
      <point x="-56.0" y="-122.0" type="qcurve" smooth="yes"/>
      <point x="-56.0" y="-62.0"/>
      <point x="14.0" y="28.0"/>
      <point x="67.0" y="40.0" type="qcurve"/>
      <point x="101.0" y="16.0" type="line"/>
      <point x="100.0" y="-17.0" type="line"/>
      <point x="61.0" y="-17.0"/>
      <point x="14.0" y="-74.0"/>
      <point x="14.0" y="-116.0" type="qcurve" smooth="yes"/>
      <point x="14.0" y="-167.0"/>
      <point x="79.0" y="-223.0"/>
      <point x="147.0" y="-223.0" type="qcurve" smooth="yes"/>
      <point x="251.0" y="-223.0"/>
      <point x="388.0" y="-17.0"/>
    </contour>
  </outline>
</glyph>
<glyph name="dagger" format="2">
  <advance width="1014"/>
  <unicode hex="2020"/>
  <outline>
    <contour>
      <point x="320.0" y="-540.0" type="line"/>
      <point x="371.0" y="-58.0" type="line"/>
      <point x="503.0" y="550.0" type="line"/>
      <point x="555.0" y="830.0" type="line"/>
      <point x="667.0" y="1468.0" type="line"/>
      <point x="693.0" y="1506.0" type="line"/>
      <point x="753.0" y="1506.0" type="line"/>
      <point x="763.0" y="1468.0" type="line"/>
      <point x="625.0" y="830.0" type="line"/>
      <point x="573.0" y="550.0" type="line"/>
      <point x="467.0" y="-58.0" type="line"/>
      <point x="340.0" y="-540.0" type="line"/>
    </contour>
    <contour>
      <point x="132.0" y="900.0" type="line"/>
      <point x="132.0" y="962.0" type="line"/>
      <point x="605.0" y="954.0" type="line"/>
      <point x="1074.0" y="962.0" type="line"/>
      <point x="1074.0" y="900.0" type="line"/>
      <point x="605.0" y="904.0" type="line"/>
    </contour>
  </outline>
</glyph>
<glyph name="minute" format="2">
  <advance width="701"/>
  <unicode hex="2032"/>
  <outline>
    <contour>
      <point x="200.0" y="999.0" type="line"/>
      <point x="428.0" y="1420.0" type="line" smooth="yes"/>
      <point x="462.0" y="1482.0"/>
      <point x="513.0" y="1529.0"/>
      <point x="542.0" y="1512.0" type="qcurve" smooth="yes"/>
      <point x="569.0" y="1496.0"/>
      <point x="546.0" y="1430.0"/>
      <point x="516.0" y="1387.0" type="qcurve" smooth="yes"/>
      <point x="244.0" y="999.0" type="line"/>
    </contour>
  </outline>
</glyph>
<glyph name="liraTurkish" format="2">
  <advance width="1349"/>
  <unicode hex="20BA"/>
  <outline>
    <contour>
      <point x="134.0" y="554.0" type="line"/>
      <point x="114.0" y="620.0" type="line"/>
      <point x="419.0" y="714.0" type="line"/>
      <point x="419.0" y="710.0" type="line"/>
      <point x="807.0" y="831.0" type="line"/>
      <point x="799.0" y="751.0" type="line"/>
      <point x="418.0" y="647.0" type="line"/>
      <point x="418.0" y="643.0" type="line"/>
    </contour>
    <contour>
      <point x="152.0" y="817.0" type="line"/>
      <point x="131.0" y="880.0" type="line"/>
      <point x="414.0" y="967.0" type="line"/>
      <point x="414.0" y="964.0" type="line"/>
      <point x="851.0" y="1091.0" type="line"/>
      <point x="840.0" y="1007.0" type="line"/>
      <point x="421.0" y="900.0" type="line"/>
      <point x="421.0" y="898.0" type="line"/>
    </contour>
    <contour>
      <point x="252.0" y="71.0" type="line"/>
      <point x="278.0" y="51.0" type="line"/>
      <point x="436.0" y="72.0"/>
      <point x="982.0" y="304.0"/>
      <point x="1033.0" y="490.0" type="qcurve" smooth="yes"/>
      <point x="1086.0" y="684.0" type="line"/>
      <point x="1107.0" y="684.0" type="line"/>
      <point x="1117.0" y="400.0" type="line"/>
      <point x="1012.0" y="255.0"/>
      <point x="558.0" y="48.0"/>
      <point x="351.0" y="-8.0" type="qcurve"/>
      <point x="226.0" y="-29.0" type="line"/>
      <point x="148.0" y="39.0" type="line"/>
      <point x="171.0" y="89.0" type="line"/>
      <point x="307.0" y="754.0" type="line"/>
      <point x="435.0" y="1428.0" type="line"/>
      <point x="203.0" y="1453.0" type="line"/>
      <point x="208.0" y="1500.0" type="line"/>
      <point x="741.0" y="1500.0" type="line"/>
      <point x="732.0" y="1453.0" type="line"/>
      <point x="515.0" y="1428.0" type="line"/>
      <point x="383.0" y="754.0" type="line"/>
    </contour>
  </outline>
</glyph>
<glyph name="f_f" format="2">
  <advance width="1502"/>
  <unicode hex="FB00"/>
  <outline>
    <contour>
      <point x="-260.0" y="-415.0" type="line" smooth="yes"/>
      <point x="-255.0" y="-372.0" type="line"/>
      <point x="-106.0" y="-376.0" type="line" smooth="yes"/>
      <point x="12.0" y="-382.0"/>
      <point x="107.0" y="-227.0"/>
      <point x="163.0" y="75.0" type="qcurve" smooth="yes"/>
      <point x="317.0" y="912.0" type="line"/>
      <point x="323.0" y="942.0" type="line"/>
      <point x="370.0" y="1200.0" type="line" smooth="yes"/>
      <point x="402.0" y="1376.0"/>
      <point x="582.0" y="1527.0"/>
      <point x="692.0" y="1527.0" type="qcurve" smooth="yes"/>
      <point x="782.0" y="1527.0"/>
      <point x="865.0" y="1453.0"/>
      <point x="865.0" y="1409.0" type="qcurve" smooth="yes"/>
      <point x="865.0" y="1383.0"/>
      <point x="843.0" y="1340.0"/>
      <point x="818.0" y="1340.0" type="qcurve" smooth="yes"/>
      <point x="808.0" y="1340.0"/>
      <point x="797.0" y="1357.0"/>
      <point x="798.0" y="1368.0" type="qcurve" smooth="yes"/>
      <point x="799.0" y="1392.0"/>
      <point x="747.0" y="1444.0"/>
      <point x="685.0" y="1444.0" type="qcurve" smooth="yes"/>
      <point x="592.0" y="1444.0"/>
      <point x="476.0" y="1315.0"/>
      <point x="455.0" y="1194.0" type="qcurve" smooth="yes"/>
      <point x="410.0" y="938.0" type="line"/>
      <point x="409.0" y="920.0" type="line"/>
      <point x="278.0" y="214.0" type="line" smooth="yes"/>
      <point x="200.0" y="-210.0"/>
      <point x="86.0" y="-447.0"/>
      <point x="-60.0" y="-447.0" type="qcurve"/>
    </contour>
    <contour>
      <point x="474.0" y="-356.0" type="line" smooth="yes"/>
      <point x="479.0" y="-313.0" type="line"/>
      <point x="628.0" y="-317.0" type="line" smooth="yes"/>
      <point x="746.0" y="-323.0"/>
      <point x="843.0" y="-168.0"/>
      <point x="897.0" y="134.0" type="qcurve" smooth="yes"/>
      <point x="1039.0" y="912.0" type="line"/>
      <point x="1045.0" y="942.0" type="line"/>
      <point x="1105.0" y="1255.0" type="line" smooth="yes"/>
      <point x="1139.0" y="1431.0"/>
      <point x="1317.0" y="1582.0"/>
      <point x="1427.0" y="1582.0" type="qcurve" smooth="yes"/>
      <point x="1517.0" y="1582.0"/>
      <point x="1600.0" y="1508.0"/>
      <point x="1600.0" y="1464.0" type="qcurve" smooth="yes"/>
      <point x="1600.0" y="1438.0"/>
      <point x="1578.0" y="1395.0"/>
      <point x="1553.0" y="1395.0" type="qcurve" smooth="yes"/>
      <point x="1543.0" y="1395.0"/>
      <point x="1532.0" y="1412.0"/>
      <point x="1533.0" y="1423.0" type="qcurve" smooth="yes"/>
      <point x="1534.0" y="1447.0"/>
      <point x="1482.0" y="1499.0"/>
      <point x="1420.0" y="1499.0" type="qcurve" smooth="yes"/>
      <point x="1327.0" y="1499.0"/>
      <point x="1213.0" y="1370.0"/>
      <point x="1190.0" y="1249.0" type="qcurve" smooth="yes"/>
      <point x="1132.0" y="938.0" type="line"/>
      <point x="1131.0" y="920.0" type="line"/>
      <point x="1012.0" y="273.0" type="line" smooth="yes"/>
      <point x="935.0" y="-151.0"/>
      <point x="820.0" y="-388.0"/>
      <point x="674.0" y="-388.0" type="qcurve"/>
    </contour>
    <contour>
      <point x="62.0" y="899.0" type="line"/>
      <point x="56.0" y="938.0" type="line"/>
      <point x="335.0" y="974.0" type="line"/>
      <point x="1450.0" y="974.0" type="line"/>
      <point x="1440.0" y="900.0" type="line"/>
      <point x="372.0" y="900.0" type="line"/>
      <point x="335.0" y="889.0" type="line"/>
    </contour>
  </outline>
</glyph>
<glyph name="commaaccentcomb.case" format="2">
  <advance width="1024"/>
  <outline>
    <contour>
      <point x="227.0" y="-491.0" type="qcurve"/>
      <point x="256.0" y="-527.0" type="line"/>
      <point x="335.0" y="-478.0"/>
      <point x="445.0" y="-362.0"/>
      <point x="445.0" y="-282.0" type="qcurve" smooth="yes"/>
      <point x="445.0" y="-228.0"/>
      <point x="394.0" y="-186.0"/>
      <point x="358.0" y="-186.0" type="qcurve" smooth="yes"/>
      <point x="314.0" y="-186.0"/>
      <point x="264.0" y="-238.0"/>
      <point x="264.0" y="-277.0" type="qcurve" smooth="yes"/>
      <point x="264.0" y="-314.0"/>
      <point x="315.0" y="-362.0"/>
      <point x="361.0" y="-362.0" type="qcurve"/>
      <point x="346.0" y="-393.0"/>
      <point x="270.0" y="-464.0"/>
    </contour>
  </outline>
</glyph>
<glyph name="dotaccentcomb.case" format="2">
  <advance width="1024"/>
  <outline>
    <contour>
      <point x="513.0" y="1721.0" type="qcurve" smooth="yes"/>
      <point x="513.0" y="1770.0"/>
      <point x="553.0" y="1810.0"/>
      <point x="604.0" y="1810.0" type="qcurve" smooth="yes"/>
      <point x="648.0" y="1810.0"/>
      <point x="695.0" y="1762.0"/>
      <point x="695.0" y="1721.0" type="qcurve" smooth="yes"/>
      <point x="695.0" y="1673.0"/>
      <point x="655.0" y="1631.0"/>
      <point x="604.0" y="1631.0" type="qcurve" smooth="yes"/>
      <point x="562.0" y="1631.0"/>
      <point x="513.0" y="1680.0"/>
    </contour>
  </outline>
</glyph>
<glyph name="dotbelowcomb.case" format="2">
  <advance width="1024"/>
  <outline>
    <contour>
      <point x="245.0" y="-247.0" type="qcurve" smooth="yes"/>
      <point x="245.0" y="-198.0"/>
      <point x="285.0" y="-157.0"/>
      <point x="336.0" y="-157.0" type="qcurve" smooth="yes"/>
      <point x="380.0" y="-157.0"/>
      <point x="427.0" y="-206.0"/>
      <point x="427.0" y="-247.0" type="qcurve" smooth="yes"/>
      <point x="427.0" y="-295.0"/>
      <point x="387.0" y="-336.0"/>
      <point x="336.0" y="-336.0" type="qcurve" smooth="yes"/>
      <point x="294.0" y="-336.0"/>
      <point x="245.0" y="-288.0"/>
    </contour>
  </outline>
</glyph>
